<svg width="1624" height="336" viewBox="0 0 1624 336" fill="none" xmlns="http://www.w3.org/2000/svg">
<path fill-rule="evenodd" clip-rule="evenodd" d="M150.709 0.411521C118.93 4.07981 91.0577 15.1659 65.9789 34.1131C49.76 46.3662 34.9456 62.7449 24.5319 79.9371C18.2016 90.3873 9.06 109.497 9.96048 110.397C10.0924 110.529 38.3639 110.704 72.7863 110.788C128.258 110.921 135.331 110.846 135.008 110.131C132.383 104.303 131.879 101.753 131.869 94.2595C131.859 86.1368 132.331 83.9342 135.39 77.82C143.812 60.9888 166.525 54.4426 183.011 64.0943C187.6 66.7807 193.206 72.6242 195.585 77.1996C198.666 83.1266 199.643 87.2075 199.669 94.2595C199.691 100.297 198.389 106.409 196.431 109.459L195.655 110.669H234.625C256.058 110.669 284.569 110.83 297.983 111.027L322.371 111.385L321.979 110.086C320.995 106.825 318.592 101.245 315.503 95.0504C294.164 52.2447 258.644 21.2629 214.799 7.21168C207.705 4.93851 198.39 2.80253 189.217 1.34554C181.501 0.120451 158.141 -0.446636 150.709 0.411521ZM162.019 20.826C162.019 21.8036 161.693 22.2098 160.807 22.3357C159.839 22.4729 159.596 22.2474 159.596 21.2144C159.596 19.6649 160.061 19.1113 161.185 19.3276C161.671 19.4212 162.019 20.0458 162.019 20.826ZM132.674 29.9816C133.099 31.0066 134.181 32.0541 135.517 32.7347L137.673 33.8339L135.574 34.9977C134.289 35.7106 133.083 36.9615 132.465 38.2242L131.454 40.287L130.299 38.2307C129.664 37.0998 128.224 35.6584 127.099 35.0278L125.053 33.8813L126.987 32.7417C128.05 32.1149 129.424 30.7499 130.039 29.7083C131.298 27.5756 131.694 27.6165 132.674 29.9816ZM226.647 38.2969C226.647 40.2047 224.965 40.8525 223.876 39.3649C222.917 38.0542 223.902 36.2997 225.472 36.523C226.38 36.6521 226.647 37.0551 226.647 38.2969ZM201.498 39.3089C201.257 40.9838 199.45 41.1608 199.45 39.5096C199.45 37.9305 199.845 37.4764 200.877 37.8718C201.308 38.037 201.587 38.6837 201.498 39.3089ZM98.7377 49.2764C98.7377 50.5785 97.3902 51.1122 96.5764 50.1325C95.7853 49.1807 96.3346 48.258 97.6923 48.258C98.3591 48.258 98.7377 48.627 98.7377 49.2764ZM214.547 53.67C215.485 55.4213 213.882 57.9425 211.831 57.9425C210.926 57.9425 209.682 56.2245 209.682 54.9752C209.682 52.4185 213.349 51.435 214.547 53.67ZM121.932 53.1191C123.976 54.2123 122.909 57.4045 120.5 57.4045C118.584 57.4045 117.9 54.1365 119.607 53.1433C120.79 52.4551 120.692 52.4562 121.932 53.1191ZM83.5668 58.1781C84.1679 59.1955 85.4033 60.412 86.313 60.8823C87.2221 61.352 87.9664 61.8271 87.9664 61.9384C87.9664 62.0493 87.1267 62.6352 86.1013 63.2399C84.9865 63.8969 83.8873 65.1634 83.3697 66.3869L82.5037 68.4341L81.6668 66.82C80.5094 64.5871 79.2949 63.2814 77.8683 62.7363C76.1955 62.0972 76.349 61.5166 78.4553 60.5127C79.5076 60.0118 80.5412 58.9653 80.9445 57.992C81.8229 55.8732 82.222 55.9012 83.5668 58.1781ZM249.018 67.1379C249.397 68.0526 250.643 69.4203 251.788 70.1767L253.868 71.5519L252.375 72.4612C250.584 73.5529 249.473 74.8302 248.673 76.7176L248.079 78.1186L247.253 76.1811C246.463 74.3276 243.831 71.9312 242.586 71.9312C241.439 71.9312 242.015 70.8708 243.344 70.5378C244.829 70.1654 247.382 67.4479 247.382 66.2405C247.382 64.9073 248.302 65.412 249.018 67.1379ZM227.994 78.9574C227.994 80.2164 226.48 80.3562 226.013 79.1403C225.673 78.2552 226.796 77.1738 227.564 77.6478C227.8 77.7936 227.994 78.3828 227.994 78.9574ZM52.7743 79.3647C53.7001 80.5812 53.6667 81.6739 52.6596 83.1099C51.0229 85.4449 47.0354 83.9912 47.0354 81.0595C47.0354 80.5892 47.5475 79.6552 48.1734 78.9843C49.4578 77.6069 51.5701 77.7818 52.7743 79.3647ZM113.279 80.2707C113.279 81.775 111.974 82.1248 111.45 80.7603C111.041 79.6961 111.483 78.9256 112.503 78.9256C112.971 78.9256 113.279 79.4583 113.279 80.2707ZM282.627 80.6597C283.709 82.2028 283.684 82.842 282.48 84.3275C280.313 87.0009 276.386 83.727 278.285 80.8308C279.412 79.1134 281.486 79.0311 282.627 80.6597ZM159.592 110.69C156.188 113.364 150.252 118.036 146.401 121.073C142.55 124.109 135.279 129.832 130.244 133.791C125.208 137.749 119.998 141.869 118.665 142.946C117.332 144.022 110.546 149.349 103.585 154.783C96.6238 160.217 88.2626 166.749 85.0043 169.298C81.7459 171.849 78.7892 174.113 78.4343 174.33C78.0497 174.565 76.2299 173.521 73.9351 171.751C71.8164 170.115 69.9863 168.777 69.8684 168.777C69.751 168.777 62.8083 174.101 54.4401 180.61C46.0724 187.118 38.9596 192.445 38.6332 192.447C38.3074 192.448 36.4773 191.268 34.5676 189.823L31.0943 187.197L17.2979 197.919L3.50092 208.642L4.85541 213.593C10.3068 233.524 22.1391 256.431 35.8865 273.669C47.1679 287.815 61.5874 300.841 75.9413 309.853L80.8971 312.965L95.8763 309.507C118.412 304.306 156.531 295.769 162.019 294.694C166.373 293.842 166.729 293.684 165.52 293.15C163.493 292.255 139.592 282.907 124.05 276.93C93.4425 265.158 67.3765 254.422 67.7879 253.756C67.9209 253.542 68.8193 253.247 69.7849 253.102C72.8741 252.638 92.535 248.749 92.7908 248.551C92.9266 248.446 87.8662 243.2 81.545 236.891C75.2244 230.583 69.7989 224.969 69.4892 224.416C69.179 223.863 68.8139 219.54 68.6776 214.809L68.4294 206.209L69.5447 206.996C71.3522 208.272 100.964 227.963 110.188 234.022L118.676 239.598L117.458 240.685C116.789 241.283 112.058 244.763 106.946 248.419C101.833 252.075 97.8345 255.233 98.0596 255.435C98.6348 255.953 107.39 258.753 128.897 265.295C139.117 268.404 153.9 272.901 161.75 275.288C169.599 277.675 185.656 282.457 197.43 285.914C209.204 289.371 218.838 292.385 218.838 292.612C218.838 293.044 198.708 299.645 183.023 304.356C177.988 305.869 170.475 308.166 166.328 309.461C162.181 310.756 151.881 313.909 143.439 316.468C134.997 319.028 124.212 322.354 119.472 323.859L110.855 326.596L114.895 327.89C138.841 335.559 164.379 337.857 188.282 334.493C219.939 330.038 246.067 318.845 270.536 299.255C289.801 283.832 305.083 264.388 317.593 239.386C323.14 228.3 323.11 228.565 318.482 231.415L314.655 233.772L310.774 230.13C308.64 228.127 304.444 224.337 301.45 221.709C298.456 219.081 292.074 213.359 287.267 208.994C282.46 204.63 278.331 201.058 278.09 201.058C277.662 201.058 268.825 207.033 266.306 209.025L265.033 210.032L267.383 211.397C268.675 212.147 275.791 215.907 283.197 219.751C290.602 223.595 300.054 228.502 304.201 230.655C308.348 232.809 311.917 234.724 312.133 234.912C312.469 235.205 282.409 253.369 247.129 274.19L236.914 280.22L230.703 277.411C227.287 275.866 221.585 273.344 218.03 271.804C191.876 260.479 173.319 252.307 170.232 250.756L166.597 248.93V227.908C166.597 216.346 166.406 206.968 166.173 207.067C165.94 207.165 163.82 208.637 161.461 210.337C159.102 212.038 152.371 216.826 146.504 220.977L135.835 228.526L134.117 227.318C133.171 226.655 129.975 224.044 127.012 221.516C124.05 218.989 119.082 214.881 115.972 212.388C112.862 209.894 108 205.856 105.169 203.414L100.021 198.973L97.9659 190.309C96.8355 185.543 96.0325 181.523 96.1816 181.373C96.3308 181.224 99.936 182.714 104.193 184.685C112.205 188.394 126.935 194.98 137.245 199.462C140.503 200.879 146.543 203.512 150.667 205.314C154.79 207.117 158.281 208.591 158.425 208.591C159.05 208.591 155.76 205.506 142.092 193.271C134.095 186.113 127.276 179.913 126.939 179.493C126.602 179.073 125.802 175.462 125.16 171.467C124.518 167.472 123.865 163.539 123.71 162.726C123.455 161.392 124.482 161.982 134.367 168.848C140.384 173.027 146.098 177.049 147.065 177.786C148.033 178.524 148.824 178.888 148.824 178.596C148.824 178.303 148.105 173.13 147.226 167.098C145.688 156.553 143.439 139.637 143.439 138.621C143.439 138.352 151.435 143.494 161.209 150.049C170.982 156.604 179.098 161.847 179.245 161.701C179.489 161.457 176.573 157.036 169.39 146.756L166.597 142.76V124.293C166.597 114.137 166.414 105.827 166.19 105.827C165.966 105.827 162.997 108.015 159.592 110.69ZM7.97263 115.243C7.83368 115.687 7.57302 116.474 7.39314 116.991C6.83572 118.596 5.04014 125.966 5.03368 126.676C5.02829 127.209 17.131 127.348 63.7691 127.348H122.511L125.031 125.286C131.807 119.74 135.939 116.588 136.432 116.588C137.305 116.588 137.058 115.12 136.124 114.762C135.655 114.582 106.686 114.436 71.7485 114.436C15.7544 114.436 8.19506 114.531 7.97263 115.243ZM193.669 115.482C193.075 116.432 193.592 117.05 199.058 121.929L205.104 127.326L266.097 127.337C323.844 127.348 327.088 127.298 327.053 126.407C327.032 125.889 326.237 123.044 325.285 120.085L323.555 114.705L258.941 114.568C195.35 114.433 194.315 114.448 193.669 115.482ZM3.20094 135.324C2.86218 135.871 1.80228 142.289 1.8082 143.758C1.81144 144.65 1.90192 144.696 2.33439 144.027C2.69038 143.477 2.85895 143.436 2.86487 143.901C2.87618 144.86 87.2738 144.816 88.4619 143.857C88.9283 143.48 89.1076 143.459 88.9008 143.804C88.66 144.206 90.2698 144.419 94.0689 144.489L99.5859 144.591L102.363 142.561C103.89 141.444 106.849 139.329 108.94 137.861C111.03 136.393 112.74 135.121 112.74 135.036C112.74 134.646 3.44329 134.932 3.20094 135.324ZM215.696 135.415C215.795 135.709 218.139 137.882 220.905 140.244L225.935 144.54L278.128 144.529C320.016 144.521 330.321 144.383 330.321 143.834C330.321 142.987 329.284 137.106 328.908 135.822C328.648 134.933 325.476 134.881 272.075 134.881C234.885 134.881 215.578 135.064 215.696 135.415ZM195.41 147.32C190.967 150.574 187.005 153.557 186.606 153.95C186 154.545 186.713 155.156 190.914 157.641C198.637 162.209 198.336 161.838 195.878 163.749C194.732 164.64 190.765 167.473 187.062 170.044C177.232 176.87 178.019 176.135 179.275 177.311C180.279 178.251 187.707 182.834 218.838 201.72C226.391 206.302 235.819 212.027 239.789 214.441C243.758 216.855 247.064 218.766 247.135 218.687C247.207 218.609 243.741 213.586 239.433 207.526C225.817 188.369 209.98 164.348 210.329 163.376C210.417 163.129 212.308 163.961 214.529 165.226C218.808 167.661 234.769 177 241.323 180.902C243.47 182.181 245.228 183.023 245.228 182.775C245.228 182.052 204.783 141.333 204.103 141.37C203.765 141.389 199.853 144.066 195.41 147.32ZM0.0740219 154.552C-0.0493097 155.605 -0.014838 156.54 0.149963 156.63C0.314764 156.719 19.2319 156.765 42.1883 156.732L83.9271 156.671L86.4853 154.831C87.8926 153.819 89.0435 152.911 89.0435 152.813C89.0435 152.716 69.0756 152.636 44.6705 152.636H0.298066L0.0740219 154.552ZM236.755 154.12C238.366 155.8 241.458 157.762 241.458 157.105C241.458 156.866 261.815 156.727 286.697 156.796L331.937 156.922V155.63C331.937 152.398 335.792 152.636 283.307 152.636H235.332L236.755 154.12ZM260.844 169.878C253.079 175.399 251.602 173.234 272.789 187.383C282.944 194.165 291.589 199.923 291.999 200.178C292.409 200.434 291.781 199.223 290.602 197.488C288.898 194.978 285.799 189.496 284.636 186.933C284.535 186.71 288.169 189.033 292.711 192.095C297.253 195.157 305.21 200.157 310.394 203.206C315.578 206.254 320.122 208.985 320.492 209.274C320.863 209.562 321.165 209.664 321.165 209.498C321.165 208.975 313.9 203.258 295.045 188.943C284.974 181.297 274.386 173.148 271.516 170.833C268.646 168.518 266.1 166.624 265.858 166.624C265.618 166.624 263.361 168.088 260.844 169.878ZM198.642 206.131C197.753 206.789 194.421 209.236 191.236 211.571C188.052 213.905 185.447 215.98 185.447 216.181C185.447 216.381 185.75 216.673 186.12 216.827C186.491 216.982 200.91 223.394 218.165 231.077C235.419 238.759 249.536 244.96 249.536 244.857C249.536 244.754 244.265 240.437 237.822 235.263C215.81 217.585 210.488 213.29 206.182 209.729C203.812 207.769 201.51 205.889 201.065 205.551C200.433 205.07 199.907 205.196 198.642 206.131Z" fill="url(#paint0_linear_3_17)"/>
<path d="M488.619 117.778C493.685 110.454 499.869 104.624 507.17 100.29C514.471 95.8056 522.07 93.5635 529.968 93.5635V146.7H515.887C506.499 146.7 499.571 148.345 495.1 151.633C490.779 154.921 488.619 160.751 488.619 169.121V220.913H439V94.4603H488.619V117.778Z" fill="#3B34B0"/>
<path d="M665.368 156.565C665.368 160.003 665.144 163.292 664.697 166.431H584.905C585.65 177.342 590.195 182.798 598.539 182.798C603.903 182.798 607.777 180.331 610.161 175.399H662.686C660.898 184.367 657.098 192.438 651.287 199.613C645.625 206.638 638.398 212.243 629.606 216.429C620.964 220.464 611.428 222.482 600.998 222.482C588.481 222.482 577.306 219.866 567.471 214.635C557.786 209.403 550.187 201.93 544.674 192.214C539.309 182.349 536.627 170.84 536.627 157.687C536.627 144.533 539.309 133.099 544.674 123.383C550.187 113.518 557.786 105.97 567.471 100.738C577.306 95.5066 588.481 92.8909 600.998 92.8909C613.514 92.8909 624.615 95.5066 634.3 100.738C644.134 105.82 651.734 113.144 657.098 122.71C662.611 132.276 665.368 143.562 665.368 156.565ZM615.079 144.683C615.079 140.497 613.737 137.358 611.055 135.266C608.373 133.024 605.021 131.903 600.998 131.903C592.206 131.903 587.066 136.163 585.576 144.683H615.079Z" fill="#3B34B0"/>
<path d="M849.361 93.5635C865.454 93.5635 877.896 98.4213 886.687 108.137C895.628 117.853 900.098 131.006 900.098 147.597V220.913H850.703V153.875C850.703 148.494 849.063 144.309 845.785 141.319C842.656 138.181 838.41 136.611 833.045 136.611C827.532 136.611 823.211 138.181 820.082 141.319C816.953 144.309 815.388 148.494 815.388 153.875V220.913H765.993V153.875C765.993 148.494 764.354 144.309 761.076 141.319C757.947 138.181 753.7 136.611 748.336 136.611C742.823 136.611 738.502 138.181 735.373 141.319C732.244 144.309 730.679 148.494 730.679 153.875V220.913H681.06V94.4603H730.679V111.5C734.255 106.119 739.098 101.784 745.207 98.496C751.465 95.2077 758.766 93.5635 767.111 93.5635C776.2 93.5635 784.246 95.5813 791.25 99.6171C798.253 103.503 803.84 109.034 808.013 116.208C812.632 109.632 818.517 104.251 825.67 100.065C832.822 95.7308 840.719 93.5635 849.361 93.5635Z" fill="#3B34B0"/>
<path d="M981.493 222.482C968.827 222.482 957.429 219.866 947.296 214.635C937.164 209.403 929.192 201.93 923.381 192.214C917.719 182.349 914.888 170.84 914.888 157.687C914.888 144.533 917.719 133.099 923.381 123.383C929.192 113.518 937.164 105.97 947.296 100.738C957.429 95.5066 968.827 92.8909 981.493 92.8909C994.158 92.8909 1005.56 95.5066 1015.69 100.738C1025.82 105.97 1033.72 113.518 1039.38 123.383C1045.19 133.099 1048.1 144.533 1048.1 157.687C1048.1 170.84 1045.19 182.349 1039.38 192.214C1033.72 201.93 1025.82 209.403 1015.69 214.635C1005.56 219.866 994.158 222.482 981.493 222.482ZM981.493 179.435C986.112 179.435 989.986 177.641 993.115 174.054C996.244 170.317 997.809 164.861 997.809 157.687C997.809 150.512 996.244 145.131 993.115 141.544C989.986 137.807 986.112 135.938 981.493 135.938C976.874 135.938 973 137.807 969.87 141.544C966.741 145.131 965.177 150.512 965.177 157.687C965.177 164.861 966.667 170.317 969.647 174.054C972.776 177.641 976.725 179.435 981.493 179.435Z" fill="#3B34B0"/>
<path d="M1127.61 173.605L1147.72 94.4603H1200.47L1158.45 220.913H1096.54L1054.52 94.4603H1107.27L1127.61 173.605Z" fill="#3B34B0"/>
<path d="M1335.67 156.565C1335.67 160.003 1335.45 163.292 1335 166.431H1255.21C1255.95 177.342 1260.5 182.798 1268.84 182.798C1274.21 182.798 1278.08 180.331 1280.47 175.399H1332.99C1331.2 184.367 1327.4 192.438 1321.59 199.613C1315.93 206.638 1308.7 212.243 1299.91 216.429C1291.27 220.464 1281.73 222.482 1271.3 222.482C1258.79 222.482 1247.61 219.866 1237.78 214.635C1228.09 209.403 1220.49 201.93 1214.98 192.214C1209.61 182.349 1206.93 170.84 1206.93 157.687C1206.93 144.533 1209.61 133.099 1214.98 123.383C1220.49 113.518 1228.09 105.97 1237.78 100.738C1247.61 95.5066 1258.79 92.8909 1271.3 92.8909C1283.82 92.8909 1294.92 95.5066 1304.6 100.738C1314.44 105.82 1322.04 113.144 1327.4 122.71C1332.92 132.276 1335.67 143.562 1335.67 156.565ZM1285.38 144.683C1285.38 140.497 1284.04 137.358 1281.36 135.266C1278.68 133.024 1275.32 131.903 1271.3 131.903C1262.51 131.903 1257.37 136.163 1255.88 144.683H1285.38Z" fill="#3B34B0"/>
<path d="M1373.49 125.625C1377.51 117.105 1383.7 110.155 1392.04 104.774C1400.54 99.3929 1410.52 96.7024 1421.99 96.7024C1433.17 96.7024 1443.15 99.3181 1451.94 104.55C1460.73 109.632 1467.59 116.956 1472.51 126.522C1477.57 135.938 1480.1 146.925 1480.1 159.48C1480.1 172.036 1477.57 183.097 1472.51 192.663C1467.59 202.229 1460.66 209.628 1451.72 214.859C1442.93 220.091 1433.02 222.706 1421.99 222.706C1410.37 222.706 1400.31 220.091 1391.82 214.859C1383.48 209.478 1377.37 202.528 1373.49 194.008V220.913H1358.07V55H1373.49V125.625ZM1464.24 159.48C1464.24 149.316 1462.22 140.572 1458.2 133.248C1454.33 125.774 1448.96 120.095 1442.11 116.208C1435.25 112.322 1427.51 110.379 1418.86 110.379C1410.52 110.379 1402.85 112.397 1395.84 116.433C1388.99 120.468 1383.55 126.223 1379.53 133.696C1375.5 141.17 1373.49 149.839 1373.49 159.704C1373.49 169.569 1375.5 178.239 1379.53 185.712C1383.55 193.186 1388.99 198.94 1395.84 202.976C1402.85 207.012 1410.52 209.03 1418.86 209.03C1427.51 209.03 1435.25 207.087 1442.11 203.2C1448.96 199.165 1454.33 193.41 1458.2 185.937C1462.22 178.313 1464.24 169.495 1464.24 159.48Z" fill="#3B34B0"/>
<path d="M1560.08 96.7024C1571.55 96.7024 1581.53 99.3929 1590.03 104.774C1598.52 110.155 1604.63 116.956 1608.35 125.177V98.496H1624V224.052C1624 235.262 1621.54 245.202 1616.62 253.871C1611.86 262.54 1605.15 269.192 1596.51 273.825C1587.87 278.608 1578.03 281 1567.01 281C1551.36 281 1538.32 277.263 1527.89 269.79C1517.61 262.316 1511.2 252.152 1508.67 239.298H1524.09C1526.77 247.817 1531.84 254.618 1539.29 259.7C1546.89 264.782 1556.13 267.323 1567.01 267.323C1574.9 267.323 1581.98 265.604 1588.24 262.167C1594.5 258.878 1599.41 253.946 1602.99 247.369C1606.57 240.792 1608.35 233.02 1608.35 224.052V193.784C1604.48 202.154 1598.3 209.104 1589.8 214.635C1581.46 220.016 1571.55 222.706 1560.08 222.706C1548.9 222.706 1538.84 220.091 1529.9 214.859C1521.11 209.628 1514.18 202.229 1509.12 192.663C1504.2 183.097 1501.74 172.036 1501.74 159.48C1501.74 146.925 1504.2 135.938 1509.12 126.522C1514.18 116.956 1521.11 109.632 1529.9 104.55C1538.84 99.3181 1548.9 96.7024 1560.08 96.7024ZM1608.35 159.704C1608.35 149.839 1606.34 141.17 1602.32 133.696C1598.3 126.223 1592.78 120.468 1585.78 116.433C1578.93 112.397 1571.33 110.379 1562.98 110.379C1554.34 110.379 1546.59 112.322 1539.74 116.208C1532.88 120.095 1527.44 125.774 1523.42 133.248C1519.55 140.572 1517.61 149.316 1517.61 159.48C1517.61 169.495 1519.55 178.313 1523.42 185.937C1527.44 193.41 1532.88 199.165 1539.74 203.2C1546.59 207.087 1554.34 209.03 1562.98 209.03C1571.33 209.03 1578.93 207.012 1585.78 202.976C1592.78 198.94 1598.3 193.186 1602.32 185.712C1606.34 178.239 1608.35 169.569 1608.35 159.704Z" fill="#3B34B0"/>
<defs>
<linearGradient id="paint0_linear_3_17" x1="166" y1="0" x2="166" y2="336" gradientUnits="userSpaceOnUse">
<stop stop-color="#3B34B0"/>
<stop offset="1" stop-color="#433BC4"/>
</linearGradient>
</defs>
</svg>
