<svg width="617" height="625" viewBox="0 0 617 625" fill="none" xmlns="http://www.w3.org/2000/svg">
<path fill-rule="evenodd" clip-rule="evenodd" d="M279.834 0.764867C220.827 7.58287 169.074 28.1879 122.508 63.4039C92.3935 86.1779 64.8865 116.62 45.5505 148.574C33.7965 167.997 16.8225 203.515 18.4945 205.187C18.7395 205.433 71.2334 205.759 135.148 205.914C238.146 206.162 251.28 206.023 250.681 204.694C245.806 193.861 244.87 189.121 244.852 175.194C244.833 160.097 245.709 156.003 251.389 144.639C267.027 113.356 309.2 101.189 339.812 119.128C348.332 124.121 358.741 134.982 363.158 143.486C368.88 154.502 370.694 162.087 370.741 175.194C370.782 186.416 368.365 197.775 364.73 203.444L363.288 205.694H435.647C475.444 205.694 528.383 205.993 553.29 206.359L598.573 207.024L597.845 204.609C596.018 198.548 591.555 188.177 585.821 176.664C546.199 97.1039 480.246 39.5199 398.834 13.4039C385.663 9.17887 368.367 5.20887 351.334 2.50087C337.008 0.223875 293.633 -0.830133 279.834 0.764867ZM300.834 38.7079C300.834 40.5249 300.228 41.2799 298.584 41.5139C296.786 41.7689 296.334 41.3499 296.334 39.4299C296.334 36.5499 297.199 35.5209 299.285 35.9229C300.188 36.0969 300.834 37.2579 300.834 38.7079ZM246.347 55.7249C247.136 57.6299 249.144 59.5769 251.625 60.8419L255.629 62.8849L251.731 65.0479C249.345 66.3729 247.106 68.6979 245.958 71.0449L244.081 74.8789L241.937 71.0569C240.758 68.9549 238.084 66.2759 235.995 65.1039L232.196 62.9729L235.786 60.8549C237.761 59.6899 240.311 57.1529 241.453 55.2169C243.792 51.2529 244.526 51.3289 246.347 55.7249ZM420.834 71.1799C420.834 74.7259 417.711 75.9299 415.689 73.1649C413.908 70.7289 415.737 67.4679 418.652 67.8829C420.338 68.1229 420.834 68.8719 420.834 71.1799ZM374.137 73.0609C373.691 76.1739 370.334 76.5029 370.334 73.4339C370.334 70.4989 371.069 69.6549 372.985 70.3899C373.785 70.6969 374.303 71.8989 374.137 73.0609ZM183.334 91.5869C183.334 94.0069 180.832 94.9989 179.321 93.1779C177.852 91.4089 178.872 89.6939 181.393 89.6939C182.631 89.6939 183.334 90.3799 183.334 91.5869ZM398.366 99.7529C400.108 103.008 397.132 107.694 393.324 107.694C391.644 107.694 389.334 104.501 389.334 102.179C389.334 97.4269 396.142 95.5989 398.366 99.7529ZM226.4 98.7289C230.196 100.761 228.215 106.694 223.741 106.694C220.185 106.694 218.914 100.62 222.084 98.7739C224.28 97.4949 224.098 97.4969 226.4 98.7289ZM155.165 108.132C156.281 110.023 158.575 112.284 160.264 113.158C161.952 114.031 163.334 114.914 163.334 115.121C163.334 115.327 161.775 116.416 159.871 117.54C157.801 118.761 155.76 121.115 154.799 123.389L153.191 127.194L151.637 124.194C149.488 120.044 147.233 117.617 144.584 116.604C141.478 115.416 141.763 114.337 145.674 112.471C147.628 111.54 149.547 109.595 150.296 107.786C151.927 103.848 152.668 103.9 155.165 108.132ZM462.372 124.785C463.076 126.485 465.39 129.027 467.515 130.433L471.378 132.989L468.606 134.679C465.28 136.708 463.216 139.082 461.731 142.59L460.628 145.194L459.094 141.593C457.627 138.148 452.741 133.694 450.43 133.694C448.299 133.694 449.369 131.723 451.837 131.104C454.593 130.412 459.334 125.361 459.334 123.117C459.334 120.639 461.043 121.577 462.372 124.785ZM423.334 146.753C423.334 149.093 420.524 149.353 419.657 147.093C419.026 145.448 421.111 143.438 422.536 144.319C422.975 144.59 423.334 145.685 423.334 146.753ZM97.9905 147.51C99.7095 149.771 99.6474 151.802 97.7774 154.471C94.7384 158.811 87.3344 156.109 87.3344 150.66C87.3344 149.786 88.2855 148.05 89.4475 146.803C91.8325 144.243 95.7545 144.568 97.9905 147.51ZM210.334 149.194C210.334 151.99 207.911 152.64 206.938 150.104C206.179 148.126 207 146.694 208.893 146.694C209.763 146.694 210.334 147.684 210.334 149.194ZM524.777 149.917C526.786 152.785 526.739 153.973 524.503 156.734C520.479 161.703 513.188 155.618 516.715 150.235C518.807 147.043 522.658 146.89 524.777 149.917ZM296.328 205.732C290.006 210.702 278.984 219.386 271.834 225.03C264.684 230.673 251.184 241.31 241.834 248.668C232.484 256.026 222.809 263.683 220.334 265.684C217.859 267.685 205.259 277.585 192.334 287.685C179.409 297.784 163.884 309.925 157.834 314.664C151.784 319.404 146.294 323.612 145.635 324.015C144.921 324.452 141.542 322.513 137.281 319.222C133.347 316.181 129.949 313.694 129.73 313.694C129.512 313.694 116.621 323.591 101.083 335.688C85.5464 347.784 72.3394 357.684 71.7334 357.688C71.1284 357.691 67.7305 355.497 64.1845 352.812L57.7355 347.931L32.1184 367.86L6.50045 387.789L9.01545 396.992C19.1374 434.036 41.1075 476.611 66.6335 508.65C87.5805 534.942 114.354 559.153 141.006 575.904L150.208 581.687L178.021 575.261C219.864 565.594 290.643 549.727 300.834 547.729C308.918 546.144 309.579 545.852 307.334 544.859C303.57 543.196 259.191 525.82 230.334 514.711C173.502 492.832 125.103 472.877 125.867 471.64C126.114 471.241 127.782 470.694 129.575 470.425C135.311 469.562 171.817 462.333 172.292 461.965C172.544 461.77 163.148 452.019 151.411 440.294C139.675 428.57 129.601 418.136 129.026 417.108C128.45 416.079 127.772 408.044 127.519 399.252L127.058 383.267L129.129 384.73C132.485 387.102 187.467 423.699 204.594 434.962L220.355 445.326L218.094 447.346C216.851 448.457 208.067 454.925 198.575 461.721C189.082 468.516 181.657 474.384 182.075 474.76C183.143 475.724 199.399 480.927 239.334 493.087C258.309 498.865 285.759 507.223 300.334 511.66C314.909 516.097 344.722 524.984 366.584 531.409C388.446 537.834 406.334 543.436 406.334 543.858C406.334 544.661 368.957 556.93 339.834 565.687C330.484 568.499 316.534 572.768 308.834 575.175C301.134 577.581 282.009 583.442 266.334 588.199C250.659 592.956 230.634 599.138 221.834 601.936L205.834 607.023L213.334 609.428C257.798 623.682 305.216 627.953 349.598 621.701C408.379 613.42 456.893 592.616 502.327 556.206C538.097 527.539 566.474 491.401 589.701 444.932C600.001 424.326 599.946 424.818 591.352 430.116L584.246 434.496L577.04 427.727C573.077 424.004 565.286 416.961 559.727 412.076C554.168 407.191 542.317 396.556 533.392 388.444C524.467 380.332 516.799 373.694 516.352 373.694C515.558 373.694 499.15 384.799 494.472 388.502L492.109 390.372L496.472 392.909C498.871 394.304 512.084 401.292 525.834 408.436C539.584 415.581 557.134 424.701 564.834 428.704C572.534 432.706 579.162 436.266 579.562 436.616C580.188 437.16 524.371 470.921 458.865 509.619L439.897 520.826L428.365 515.606C422.023 512.735 411.434 508.046 404.834 505.185C356.272 484.135 321.816 468.947 316.084 466.064L309.334 462.669V423.598C309.334 402.109 308.98 384.677 308.547 384.861C308.115 385.044 304.177 387.78 299.797 390.94C295.418 394.101 282.92 403 272.025 410.716L252.215 424.746L249.025 422.502C247.27 421.268 241.334 416.416 235.834 411.718C230.334 407.021 221.109 399.385 215.334 394.751C209.559 390.117 200.533 382.611 195.276 378.072L185.717 369.819L181.901 353.715C179.802 344.857 178.311 337.384 178.588 337.107C178.865 336.829 185.559 339.599 193.463 343.262C208.339 350.155 235.691 362.396 254.834 370.727C260.884 373.36 272.098 378.255 279.755 381.604C287.411 384.954 293.893 387.694 294.16 387.694C295.32 387.694 289.212 381.96 263.834 359.221C248.984 345.916 236.323 334.392 235.697 333.612C235.072 332.832 233.586 326.119 232.394 318.694C231.202 311.269 229.99 303.959 229.702 302.449C229.228 299.969 231.136 301.066 249.49 313.827C260.662 321.594 271.272 329.07 273.068 330.44C274.864 331.81 276.334 332.487 276.334 331.944C276.334 331.401 274.998 321.785 273.366 310.575C270.511 290.975 266.334 259.534 266.334 257.645C266.334 257.145 281.182 266.703 299.329 278.886C317.476 291.069 332.546 300.815 332.818 300.544C333.272 300.09 327.858 291.872 314.52 272.766L309.334 265.338V231.016C309.334 212.139 308.994 196.694 308.578 196.694C308.162 196.694 302.649 200.761 296.328 205.732ZM14.8034 214.194C14.5454 215.019 14.0615 216.482 13.7275 217.444C12.6925 220.426 9.35844 234.125 9.34644 235.444C9.33644 236.436 31.8085 236.694 118.405 236.694H227.475L232.155 232.861C244.737 222.553 252.409 216.694 253.324 216.694C254.946 216.694 254.486 213.966 252.752 213.301C251.882 212.967 198.093 212.694 133.221 212.694C29.2524 212.694 15.2164 212.872 14.8034 214.194ZM359.6 214.639C358.498 216.405 359.457 217.553 369.607 226.622L380.834 236.653L494.084 236.673C601.308 236.693 607.331 236.601 607.266 234.944C607.228 233.982 605.75 228.694 603.983 223.194L600.771 213.194L480.796 212.94C362.722 212.69 360.801 212.717 359.6 214.639ZM5.94344 251.517C5.31444 252.535 3.34644 264.463 3.35744 267.194C3.36344 268.851 3.53145 268.937 4.33445 267.694C4.99545 266.671 5.30845 266.596 5.31945 267.459C5.34045 269.241 162.048 269.16 164.254 267.377C165.12 266.677 165.453 266.637 165.069 267.279C164.622 268.026 167.611 268.423 174.665 268.553L184.909 268.741L190.065 264.968C192.9 262.892 198.395 258.961 202.277 256.233C206.158 253.504 209.334 251.141 209.334 250.983C209.334 250.257 6.39344 250.79 5.94344 251.517ZM400.501 251.687C400.684 252.233 405.036 256.272 410.173 260.663L419.512 268.647L516.423 268.627C594.199 268.611 613.334 268.356 613.334 267.334C613.334 265.76 611.408 254.83 610.711 252.444C610.228 250.792 604.337 250.694 505.183 250.694C436.13 250.694 400.281 251.034 400.501 251.687ZM362.834 273.814C354.584 279.862 347.227 285.407 346.486 286.136C345.361 287.242 346.686 288.379 354.486 292.997C368.826 301.487 368.266 300.798 363.702 304.35C361.574 306.006 354.209 311.271 347.334 316.05C329.081 328.737 330.543 327.371 332.875 329.557C334.739 331.304 348.531 339.822 406.334 374.923C420.359 383.44 437.864 394.08 445.235 398.567C452.605 403.054 458.744 406.606 458.876 406.46C459.009 406.314 452.573 396.979 444.575 385.715C419.292 350.11 389.887 305.462 390.534 303.657C390.699 303.197 394.209 304.743 398.334 307.094C406.279 311.621 435.915 328.978 448.084 336.23C452.071 338.607 455.334 340.173 455.334 339.711C455.334 338.369 380.238 262.687 378.975 262.756C378.347 262.79 371.084 267.767 362.834 273.814ZM0.137443 287.255C-0.0915574 289.213 -0.0275509 290.951 0.278449 291.118C0.584449 291.284 35.7094 291.369 78.3344 291.307L155.834 291.194L160.584 287.774C163.197 285.894 165.334 284.206 165.334 284.024C165.334 283.843 128.258 283.694 82.9435 283.694H0.553443L0.137443 287.255ZM439.602 286.452C442.594 289.575 448.334 293.222 448.334 292.001C448.334 291.557 486.134 291.299 532.334 291.427L616.334 291.66V289.259C616.334 283.253 623.492 283.694 526.04 283.694H436.96L439.602 286.452ZM484.331 315.741C469.913 326.002 467.17 321.979 506.51 348.276C525.366 360.881 541.417 371.583 542.178 372.058C542.94 372.533 541.773 370.283 539.585 367.058C536.42 362.392 530.667 352.204 528.507 347.441C528.319 347.026 535.066 351.344 543.5 357.035C551.933 362.726 566.709 372.019 576.334 377.685C585.959 383.351 594.397 388.426 595.084 388.963C595.772 389.5 596.334 389.688 596.334 389.381C596.334 388.409 582.843 377.782 547.834 351.176C529.134 336.965 509.474 321.818 504.145 317.516C498.816 313.214 494.089 309.694 493.641 309.694C493.194 309.694 489.004 312.415 484.331 315.741ZM368.834 383.123C367.184 384.345 360.997 388.894 355.084 393.233C349.171 397.572 344.334 401.427 344.334 401.801C344.334 402.174 344.897 402.715 345.584 403.003C346.272 403.29 373.046 415.208 405.084 429.487C437.122 443.765 463.334 455.291 463.334 455.1C463.334 454.908 453.546 446.884 441.584 437.267C400.712 404.411 390.83 396.428 382.834 389.809C378.434 386.166 374.159 382.672 373.334 382.044C372.16 381.15 371.183 381.384 368.834 383.123Z" fill="url(#paint0_linear_1_8)"/>
<defs>
<linearGradient id="paint0_linear_1_8" x1="308.226" y1="0" x2="308.226" y2="624.501" gradientUnits="userSpaceOnUse">
<stop stop-color="#3B34B0"/>
<stop offset="1" stop-color="#433BC4"/>
</linearGradient>
</defs>
</svg>
